<svg xmlns="http://www.w3.org/2000/svg" viewBox="0 0 128 128" role="img" aria-label="Play Streamers PS logo">
  <defs>
    <linearGradient id="psEdge" x1="18" y1="12" x2="112" y2="118" gradientUnits="userSpaceOnUse">
      <stop stop-color="#8dff64"/>
      <stop offset="1" stop-color="#53fc18"/>
    </linearGradient>
    <filter id="psGlow" x="-30%" y="-30%" width="160%" height="160%">
      <feGaussianBlur stdDeviation="2.2" result="blur"/>
      <feMerge><feMergeNode in="blur"/><feMergeNode in="SourceGraphic"/></feMerge>
    </filter>
  </defs>
  <rect x="8" y="8" width="112" height="112" rx="28" fill="#050a08" stroke="url(#psEdge)" stroke-width="4"/>
  <rect x="15" y="15" width="98" height="98" rx="22" fill="none" stroke="#53fc18" stroke-opacity=".13"/>
  <g fill="url(#psEdge)" filter="url(#psGlow)">
    <path fill-rule="evenodd" d="M24 38h25l13 13v17L50 80H40v20l-16 10V38Zm16 14v14h8l6-6v-2l-6-6h-8Z"/>
    <path d="M79 38h27v14H82l-5 5v4l5 5h14l13 13v15l-11 11H68V91h24l5-5v-3l-5-4H78L64 65V52Z"/>
  </g>
</svg>
