<svg xmlns="http://www.w3.org/2000/svg" viewBox="0 0 160 160" role="img" aria-label="Play Streamers akış yörüngesi amblemi"><defs><linearGradient id="s" x1="25" y1="17" x2="139" y2="146" gradientUnits="userSpaceOnUse"><stop stop-color="#fff"/><stop offset=".28" stop-color="#a9a9ad"/><stop offset=".62" stop-color="#f4f4f1"/><stop offset="1" stop-color="#77777c"/></linearGradient><linearGradient id="r" x1="49" y1="35" x2="112" y2="126" gradientUnits="userSpaceOnUse"><stop stop-color="#fff"/><stop offset=".46" stop-color="#d4d4d1"/><stop offset="1" stop-color="#77777b"/></linearGradient><radialGradient id="g" cx="0" cy="0" r="1" gradientTransform="translate(53 39) rotate(48) scale(121)" gradientUnits="userSpaceOnUse"><stop stop-color="#303034"/><stop offset=".48" stop-color="#0d0d10"/><stop offset="1" stop-color="#030304"/></radialGradient><mask id="m"><rect width="160" height="160" fill="#fff"/><path d="m75 61 23 19-23 19V61Z" fill="#000"/></mask></defs><path d="M80 7c14 0 23 10 33 18 12 10 29 15 35 30 6 14-1 29-5 43-4 15-5 34-18 43-12 9-29 5-45 5s-33 4-45-5c-13-9-14-28-18-43-4-14-11-29-5-43 6-15 23-20 35-30C57 17 66 7 80 7Z" fill="url(#g)" stroke="url(#s)" stroke-width="3"/><ellipse cx="80" cy="80" rx="63" ry="39" fill="none" stroke="#fff" stroke-opacity=".18" stroke-width="2" transform="rotate(-24 80 80)"/><path d="M47 119V47c0-8 6-14 14-14h24c21 0 35 12 35 30 0 16-10 25-24 29l-18 5c-8 2-11 6-11 12 0 8 7 13 18 13 12 0 22-5 31-15" fill="none" stroke="url(#r)" stroke-width="15" stroke-linecap="round" stroke-linejoin="round" mask="url(#m)"/><path d="M61 48h23c11 0 18 6 18 15 0 8-6 13-16 15l-18 4" fill="none" stroke="#09090b" stroke-width="7" stroke-linecap="round"/><path d="M75 61 98 80 75 99V61Z" fill="#f4f4f1"/><circle cx="29" cy="48" r="4" fill="#fff"/><circle cx="132" cy="99" r="3" fill="#cfcfcd"/><circle cx="115" cy="30" r="2" fill="#fff"/></svg>
